inDegrees=no
num_controls=7
num_derivatives=13
num_iterations=77
num_multipliers=7
num_parameters=0
num_slacks=7
num_states=26
objective=0.329969
objective_accelerations=0.044331
objective_balance=0.001461
objective_effort=0.032186
objective_height=0.250810
objective_ligament=0.001181
solver_duration=787.862603
status=Solve_Succeeded
success=true
DataType=double
version=3
OpenSimVersion=4.5
endheader
time	/jointset/ground_pelvis/pelvis_tilt/value	/jointset/ground_pelvis/pelvis_tx/value	/jointset/ground_pelvis/pelvis_ty/value	/jointset/hip_r/hip_flexion_r/value	/jointset/hip_r/hip_adduction_r/value	/jointset/hip_r/hip_rotation_r/value	/jointset/back/lumbar_extension/value	/jointset/patellofemoral_r/patellar_flexion_r/value	/jointset/knee_r/knee_flexion_r/value	/jointset/knee_r/knee_adduction_r/value	/jointset/knee_r/knee_rotation_r/value	/jointset/ankle_r/ankle_angle_r/value	/jointset/subtalar_r/subtalar_angle_r/value	/jointset/ground_pelvis/pelvis_tilt/speed	/jointset/ground_pelvis/pelvis_tx/speed	/jointset/ground_pelvis/pelvis_ty/speed	/jointset/hip_r/hip_flexion_r/speed	/jointset/hip_r/hip_adduction_r/speed	/jointset/hip_r/hip_rotation_r/speed	/jointset/back/lumbar_extension/speed	/jointset/patellofemoral_r/patellar_flexion_r/speed	/jointset/knee_r/knee_flexion_r/speed	/jointset/knee_r/knee_adduction_r/speed	/jointset/knee_r/knee_rotation_r/speed	/jointset/ankle_r/ankle_angle_r/speed	/jointset/subtalar_r/subtalar_angle_r/speed	/forceset/tau_hip_flexion_r	/forceset/tau_hip_adduction_r	/forceset/tau_hip_rotation_r	/forceset/tau_knee_flexion_r	/forceset/tau_ankle_angle_r	/forceset/tau_subtalar_angle_r	/forceset/tau_lumbar_extension	lambda_cid13_p0	lambda_cid14_p0	lambda_cid14_p1	lambda_cid14_p2	lambda_cid14_p3	lambda_cid14_p4	lambda_cid14_p5	/jointset/ground_pelvis/pelvis_tilt/accel	/jointset/ground_pelvis/pelvis_tx/accel	/jointset/ground_pelvis/pelvis_ty/accel	/jointset/hip_r/hip_flexion_r/accel	/jointset/hip_r/hip_adduction_r/accel	/jointset/hip_r/hip_rotation_r/accel	/jointset/back/lumbar_extension/accel	/jointset/patellofemoral_r/patellar_flexion_r/accel	/jointset/knee_r/knee_flexion_r/accel	/jointset/knee_r/knee_adduction_r/accel	/jointset/knee_r/knee_rotation_r/accel	/jointset/ankle_r/ankle_angle_r/accel	/jointset/subtalar_r/subtalar_angle_r/accel	gamma_cid13_p0	gamma_cid14_p0	gamma_cid14_p1	gamma_cid14_p2	gamma_cid14_p3	gamma_cid14_p4	gamma_cid14_p5
1	-0.3540974332631486	-0.02655229874168269	0.5503990520071016	1.74270137927692	-0.2424162662687123	0.06485396010008486	-0.7853751207401735	1.708780612781393	1.708780612781395	-0.07342993353958399	0.1744912607429617	0.4361733181100206	0.1642149360266783	0.07254943184046031	0.003944706410279883	0.0159380114857383	-0.1016700668129999	-0.00201103166783092	-0.007254796707302603	-0.0005142328675068329	-0.01506862667509015	-0.01506862667508951	-0.001136811694002259	6.002087279573822e-05	0.01413607438247565	0.003393044363702075	-0.418036661355948	0.02643588912198812	0.02238835469138028	-0.4706397041963518	-0.03303269660704189	-0.01531786999614142	0.4063296950541075	-0.03825057485638287	-65.8084557952866	-22.48201886361419	8.925679758402856	9.360350766101298	-798.3531972436933	58.53078991102404	1.459270107966679	0.1207299294606888	2.313455014739725	-6.828049081602165	-0.07850917049498736	-1.114126305646143	-0.04361170445927402	-5.710348117008409	-5.710348117008397	0.7837254657414645	0.01140764859946838	-0.6216637514886357	-0.4280526420642206	1.309552184295115e-09	-8.364473465275623e-11	-1.209865218399824e-09	1.091517076802289e-08	1.061156899024635e-10	-5.580681007043118e-09	-5.591939578830875e-11
1.01	-0.353299830904078	-0.02650680433089484	0.5506740017433062	1.741344196495547	-0.2424399843296672	0.06472687502447351	-0.785381371181832	1.708344452433056	1.708344452433052	-0.0734013200771064	0.174491748454234	0.4362835576317554	0.1642280094174097	0.08695614934717137	0.005160479157445387	0.03905270245700174	-0.1697591806537101	-0.002730408286863039	-0.01816370625101848	-0.0007064278320529819	-0.07217801836059168	-0.07217801836059123	0.006860025113169988	3.63806327458535e-05	0.007904431014034692	-0.0007780534484027626	-0.4175972592286251	0.02648314441825915	0.02243839399845668	-0.4711398813876031	-0.03249024275228962	-0.01535862395006784	0.4062279130927082	-0.03825978471347791	-65.64054720388783	-22.48549492226292	8.943568951414143	9.185234480281611	-798.4341519664681	58.56644803190132	1.429139249518739	0.1229457788746778	2.310588916751366	-6.798246134922776	-0.06832151739979334	-1.079495894442635	-0.002609247543592084	-5.713421809444484	-5.713421809444558	0.807740408908421	-0.00941307637840332	-0.6250251443066818	-0.4115844398330749	4.021647232428175e-09	1.509456041588726e-09	2.120607411194175e-08	3.005373064530764e-08	-3.363623442880975e-09	-1.107843572839636e-08	4.485133141433488e-08
1.02	-0.3523586080344369	-0.02644896322632929	0.5511801209449102	1.739306341855844	-0.2424708300787701	0.06449065633028353	-0.7853886607440903	1.707336760744838	1.707336760744828	-0.07329272272242869	0.1744919671198918	0.4363312586168163	0.1641993826122096	0.1012735339537	0.00641404516582165	0.06217190456564684	-0.237804438479101	-0.003436569297595014	-0.02908152042306907	-0.0007220570002362638	-0.1293748946510231	-0.1293748946510229	0.01485996674847383	6.211749850559592e-06	0.001628367054201119	-0.004946994822486625	-0.4171578571013058	0.02653039971452948	0.02248843330560762	-0.4716400585788451	-0.0319477888975348	-0.01539937790399571	0.4061261311313028	-0.03827566995002608	-65.47698792696551	-22.4881780045067	8.959555797565667	9.007489445099814	-798.6050995904872	58.59354350049773	1.441403527930294	0.1282885817027481	2.314357242216044	-6.819277878538236	-0.07586604883492803	-1.115907231313074	-0.008298545186324679	-5.72784503799442	-5.727845037994421	0.7843464313677799	0.01010192003036567	-0.6305478697673583	-0.4276213544600673	6.823711438413385e-09	3.838447229355161e-09	4.343984834006173e-08	4.939171114447114e-08	-8.456721269776054e-09	-1.628980867244542e-08	9.058109821756798e-08
1.03	-0.3512747138733532	-0.02637843257963506	0.5519174261590315	1.736588472795568	-0.2425086185255718	0.06414517859511422	-0.7853950858646652	1.705756484470753	1.705756484470747	-0.07310415068492979	0.1744918227853903	0.4363156246723686	0.1641290109421923	0.115483749964457	0.007694800951122856	0.08528708737758933	-0.3057395428587931	-0.00411303226729498	-0.0400172665824449	-0.0005187752721532735	-0.1867133222183935	-0.1867133222183937	0.02285222413278934	-4.048691601802554e-05	-0.004797911455288157	-0.009132565671337281	-0.4167024190057893	0.02666867740139972	0.02255865121706447	-0.4718552489077422	-0.03180283901024882	-0.01538646716049665	0.4060332995689521	-0.03831393372183493	-65.43368641172484	-22.47515783297225	8.957672929880053	9.026575710517282	-798.6739975868427	58.61969994540716	1.407599226470356	0.1283738495817829	2.309786837323992	-6.776151579219732	-0.06231398393122921	-1.082893167481709	0.04127030905267901	-5.741787866155118	-5.74178786615516	0.8063319370740076	-0.01284731947449952	-0.6550828892564703	-0.4147902455139058	9.626693697029741e-09	6.174947502953489e-09	6.567176374060804e-08	6.873172654793952e-08	-1.356638398130493e-08	-2.149825935346075e-08	1.36319258041139e-07
1.04	-0.3500493638343988	-0.02629501342056008	0.5528858208086006	1.733192147719189	-0.2425529271146487	0.06369024642650244	-0.7853981524124092	1.703601834670985	1.703601834670984	-0.07283572276457449	0.1744910531523137	0.4362344449331785	0.1640166305046028	0.1295647095280965	0.008991747641970489	0.1083897916552372	-0.3734956416998756	-0.00474059775274241	-0.05097240711109779	-5.034245417445318e-05	-0.2442495997876304	-0.2442495997876309	0.03083114332152769	-0.0001188479650462315	-0.01148079187344582	-0.01334874833684202	-0.416246980910268	0.02680695508826733	0.02262886912858513	-0.4720704392366335	-0.03165788912296427	-0.01537355641700445	0.4059404680066028	-0.03835885967573594	-65.39495915643634	-22.46127639452602	8.953753825055591	9.043647223809279	-798.8361909341274	58.63802735448359	1.415552238506762	0.1315267628120937	2.311861535357127	-6.783476770816378	-0.0660865519844382	-1.119786105168485	0.04473167279368739	-5.767415038367668	-5.767415038367664	0.781678792252346	0.003769443398448623	-0.6818682515008954	-0.4337437177908479	1.104559791366538e-08	8.477201232044565e-09	8.579155444527491e-08	8.492696152243266e-08	-1.991303127628494e-08	-2.519917185382861e-08	1.684282566726669e-07
1.05	-0.348683809409149	-0.02619841826803267	0.5540850258601139	1.72911940676852	-0.2426032948600111	0.06312565996485228	-0.785394322689798	1.700871208120097	1.700871208120093	-0.07248768382666215	0.1744894102880109	0.4360852649902148	0.1638619461941257	0.1435265760183436	0.01034248961491347	0.1314337425884466	-0.4409963726677182	-0.005327504772138498	-0.06194229369964475	0.000951356073538319	-0.3018716017994734	-0.3018716017994737	0.03876997910794262	-0.0002082345314508349	-0.01838686006093217	-0.01759209811154873	-0.4162516164992885	0.02693769536486097	0.02269528678430866	-0.4715945167852416	-0.03193024271442788	-0.01527606405355933	0.4063807553262357	-0.03840659314039938	-65.46536905970341	-22.40933587131279	8.920426346160562	8.959035773407336	-798.880214434202	58.62642162741965	1.38356495028895	0.1391236031234332	2.298034655948791	-6.724944195201393	-0.05416205515998659	-1.085201172879255	0.1481493055292995	-5.758978992108595	-5.758978992108535	0.7989865238753002	-0.01503992448884793	-0.6997282607482109	-0.4201993833359342	1.242124969148914e-08	1.077838475661979e-08	1.058453412531956e-07	1.010239221085204e-07	-2.629833433949778e-08	-2.885297378605124e-08	2.001113440169436e-07
1.06	-0.3471792240998012	-0.02608786055805803	0.5555141449776887	1.724373343921077	-0.2426593655312165	0.06245145238987816	-0.785376423909295	1.697564484307188	1.697564484307187	-0.07206045642048271	0.1744869241144801	0.4358660739336951	0.1636647146306963	0.1573708863488076	0.01178425913141651	0.1543726048675444	-0.5081600210528779	-0.005881182921245633	-0.07289662977545182	0.002763469112018579	-0.3594690521919559	-0.3594690521919562	0.04666883697592723	-0.0002875098110118837	-0.02548301458344809	-0.02185819892727058	-0.4162562520883308	0.02706843564145269	0.02276170444006813	-0.4711185943338471	-0.03220259630588813	-0.01517857169011678	0.4068210426458446	-0.03846072324437738	-65.54069077424565	-22.35646151628926	8.884900687605782	8.873483427866365	-799.0221167978335	58.60803947745093	1.392041006550134	0.1497322715241207	2.290843804534794	-6.716060254279808	-0.05944077792665334	-1.116676002620505	0.2068145749468743	-5.762504714495564	-5.762504714495574	0.7736832085662834	0.005791700767166864	-0.7198855185067666	-0.4382939259938687	1.283232235549017e-08	1.26411154068701e-08	1.206063844651032e-07	1.094771781911694e-07	-3.198630913958435e-08	-3.143776651758857e-08	2.190885081071707e-07
1.07	-0.3455371301237918	-0.02596237136310766	0.5571719428717457	1.718958034965594	-0.24272079836657	0.06166789448371786	-0.785335515344416	1.693682171240188	1.693682171240187	-0.07155442399062549	0.1744837232146558	0.4355748841862973	0.1634246873940226	0.1709896347401109	0.01333450991483378	0.1771508110761866	-0.5747718425581725	-0.006398282246560062	-0.08379158108601158	0.005641436325462047	-0.4169632623040614	-0.4169632623040638	0.05454135377485284	-0.0003500736478623381	-0.03279506806349928	-0.026151855491171	-0.4162079753125446	0.02717268939838014	0.02283801809820758	-0.4701886120882818	-0.03254522781100569	-0.01502278354636776	0.4073362122372489	-0.03852502724312823	-65.60531107636737	-22.26190013934976	8.826171990882017	8.697331383858574	-798.8330480911612	58.58720434613965	1.338051610670502	0.160803382880156	2.265877769992402	-6.614253311421872	-0.04676331409299465	-1.07240072942084	0.3617666632638309	-5.73833696742015	-5.738336967420404	0.7945938672551759	-0.01185651424456458	-0.7428884638392526	-0.4255572257386021	1.319208761981977e-08	1.448052409572015e-08	1.350858987623292e-07	1.175238542470397e-07	-3.763719201078122e-08	-3.396569705760008e-08	2.373898252157992e-07
1.08	-0.3437605966928258	-0.02582075328009698	0.5590564365760818	1.7128805057525	-0.2427871859560284	0.06077608785761884	-0.7852591313336389	1.689225824510496	1.689225824510502	-0.07096955480244403	0.1744799814587968	0.435209369263879	0.1631415924508796	0.1842587773414249	0.01501003674347844	0.1997117669234084	-0.64060407257416	-0.006872133742239691	-0.09454637376245877	0.009858558287738189	-0.4742757847302527	-0.4742757847302571	0.06243618864175829	-0.0003956810180485816	-0.04034804958695051	-0.03047174022109145	-0.4161596985367637	0.02727694315530575	0.02291433175639341	-0.4692586298427141	-0.03288785931612373	-0.01486699540262327	0.4078513818286447	-0.03859522664537012	-65.67520699477187	-22.1663178785814	8.765059068101838	8.520937224765424	-798.7467296292191	58.5610793048604	1.322119848552266	0.1747874805696197	2.247393732250709	-6.560141956418382	-0.05079121199970353	-1.088644275797996	0.474645524713327	-5.726167177312663	-5.726167177312667	0.7781468221622575	0.009182994100026168	-0.7680711271867315	-0.4435395591978735	1.375139138967616e-08	1.497705880768866e-08	1.477276014610294e-07	1.247676449620449e-07	-3.957244887260274e-08	-3.735440549210518e-08	2.534438386985296e-07
